<svg width="914" height="400" fill="none" xmlns="http://www.w3.org/2000/svg"><path fill="#fff" d="M0 0h914v400H0z"/><path d="M414.95 208.494c-.975.565-2.383.848-4.224.848-2.151 0-3.892-.652-5.223-1.955-1.331-1.304-1.996-2.985-1.996-5.045 0-2.379.711-4.252 2.133-5.619 1.431-1.377 3.34-2.065 5.728-2.065 1.65 0 2.844.219 3.582.656v3.665a4.92 4.92 0 0 0-3.021-1.012c-1.24 0-2.224.364-2.953 1.094-.72.72-1.08 1.718-1.08 2.994 0 1.239.346 2.215 1.039 2.925.692.702 1.645 1.053 2.857 1.053 1.076 0 2.128-.337 3.158-1.012v3.473Zm15.723.506h-4.306v-7.957c0-2.051-.748-3.076-2.242-3.076-.766 0-1.386.287-1.86.861-.474.574-.711 1.304-.711 2.188V209h-4.32v-20.727h4.32v8.805h.055c1.057-1.613 2.493-2.42 4.307-2.42 3.171 0 4.757 1.914 4.757 5.742v8.6Zm15.45-5.77h-9.133c.146 2.033 1.427 3.049 3.842 3.049 1.541 0 2.894-.364 4.061-1.093v3.117c-1.295.692-2.976 1.039-5.045 1.039-2.261 0-4.015-.625-5.264-1.873-1.249-1.258-1.873-3.008-1.873-5.25 0-2.324.675-4.166 2.024-5.524 1.348-1.358 3.007-2.037 4.976-2.037 2.042 0 3.619.606 4.731 1.819 1.121 1.212 1.681 2.857 1.681 4.935v1.818Zm-4.006-2.652c0-2.005-.811-3.008-2.433-3.008-.693 0-1.295.287-1.805.862-.501.574-.807 1.289-.916 2.146h5.154Zm16.626 7.916c-.975.565-2.384.848-4.225.848-2.151 0-3.892-.652-5.222-1.955-1.331-1.304-1.996-2.985-1.996-5.045 0-2.379.71-4.252 2.132-5.619 1.431-1.377 3.341-2.065 5.729-2.065 1.65 0 2.844.219 3.582.656v3.665a4.923 4.923 0 0 0-3.022-1.012c-1.239 0-2.224.364-2.953 1.094-.72.72-1.08 1.718-1.08 2.994 0 1.239.347 2.215 1.039 2.925.693.702 1.645 1.053 2.858 1.053 1.075 0 2.128-.337 3.158-1.012v3.473Zm16.311.506h-5.182l-4.47-6.945h-.055V209h-4.32v-20.727h4.32v13.194h.055l4.17-6.467h5.127l-5.018 6.576 5.373 7.424Z" fill="#333"/><path d="M477.379 209.273c-.365 0-.675-.127-.93-.382a1.268 1.268 0 0 1-.383-.93c0-.374.123-.688.369-.943.256-.256.57-.383.944-.383.182 0 .351.036.506.109.164.064.305.155.423.274.119.109.215.246.288.41a1.313 1.313 0 0 1-.288 1.463 1.214 1.214 0 0 1-.423.273 1.173 1.173 0 0 1-.506.109Zm16.352-1.353c0 2.598-.593 4.521-1.778 5.769-1.175 1.258-2.994 1.887-5.455 1.887a9.598 9.598 0 0 1-4.347-1.025v-1.778c1.522.848 2.971 1.272 4.347 1.272 3.655 0 5.483-1.932 5.483-5.797v-1.682h-.055c-1.075 1.842-2.716 2.762-4.922 2.762-.866 0-1.659-.159-2.379-.478a5.142 5.142 0 0 1-1.832-1.381c-.51-.602-.907-1.331-1.189-2.188-.283-.866-.424-1.841-.424-2.926 0-1.148.15-2.192.451-3.13.301-.948.729-1.76 1.285-2.434a5.69 5.69 0 0 1 2.01-1.559c.793-.373 1.682-.56 2.666-.56 1.978 0 3.423.802 4.334 2.406h.055V195h1.75v12.92Zm-1.75-7.424a4.37 4.37 0 0 0-1.19-3.021 4.105 4.105 0 0 0-1.339-.93 3.981 3.981 0 0 0-1.696-.356c-.729 0-1.39.142-1.982.424a4.356 4.356 0 0 0-1.504 1.203c-.41.52-.729 1.153-.957 1.901-.219.738-.328 1.572-.328 2.502 0 .857.105 1.631.314 2.324.21.693.506 1.281.889 1.764a4 4 0 0 0 1.381 1.121 4.128 4.128 0 0 0 1.818.396c.693 0 1.322-.123 1.887-.369a4.383 4.383 0 0 0 1.449-1.039c.401-.447.711-.966.93-1.559a5.65 5.65 0 0 0 .328-1.941v-2.42Zm11.43 8.832c-1.039 0-1.973-.173-2.803-.519a6.04 6.04 0 0 1-2.105-1.463 6.55 6.55 0 0 1-1.34-2.284c-.31-.884-.465-1.863-.465-2.939 0-1.167.164-2.21.492-3.131.328-.92.793-1.7 1.395-2.338a6.008 6.008 0 0 1 2.201-1.476c.857-.338 1.814-.506 2.871-.506 1.012 0 1.923.168 2.735.506a5.507 5.507 0 0 1 2.064 1.435c.565.629.998 1.395 1.299 2.297.301.902.451 1.928.451 3.076 0 1.094-.16 2.092-.479 2.994a6.653 6.653 0 0 1-1.339 2.311 5.981 5.981 0 0 1-2.133 1.504c-.839.355-1.787.533-2.844.533Zm.137-13.139c-.766 0-1.459.133-2.078.397a4.39 4.39 0 0 0-1.6 1.162c-.437.501-.775 1.121-1.012 1.859-.237.73-.355 1.559-.355 2.489 0 .875.118 1.663.355 2.365.237.702.57 1.303.998 1.805.438.501.967.888 1.586 1.162.62.264 1.313.396 2.078.396.784 0 1.477-.127 2.079-.383a4.205 4.205 0 0 0 1.531-1.134c.419-.502.734-1.112.943-1.832.219-.72.328-1.541.328-2.461 0-1.887-.419-3.327-1.258-4.321-.838-1.002-2.037-1.504-3.595-1.504Z" fill="#555"/></svg>