<svg width="914" height="400" fill="none" xmlns="http://www.w3.org/2000/svg"><style>#CL0 {fill: #00ACD7;}#CL1 {fill: #333;}@media (prefers-color-scheme: dark) {#CL0 {fill: #00ACD7;}#CL1 {fill: #DDD;}}</style><path d="M402.131 205.238c.374 0 .729-.054 1.066-.164.338-.109.634-.264.889-.465.255-.2.451-.442.588-.724.146-.283.21-.597.191-.944h3.582a4.357 4.357 0 0 1-.478 2.133 5.178 5.178 0 0 1-1.354 1.696 6.658 6.658 0 0 1-2.009 1.121 7.256 7.256 0 0 1-2.407.396c-1.148 0-2.155-.191-3.021-.574a6.076 6.076 0 0 1-2.16-1.6 6.906 6.906 0 0 1-1.327-2.365 9.565 9.565 0 0 1-.437-2.926v-.41c0-1.039.146-2.01.437-2.912a6.74 6.74 0 0 1 1.313-2.379 6.252 6.252 0 0 1 2.16-1.6c.866-.391 1.869-.587 3.008-.587.911 0 1.754.136 2.529.41a6.12 6.12 0 0 1 2.01 1.148 5.228 5.228 0 0 1 1.299 1.819c.31.701.456 1.49.437 2.365h-3.582a2.471 2.471 0 0 0-.164-1.039 2.331 2.331 0 0 0-.56-.848 2.677 2.677 0 0 0-.889-.56 2.892 2.892 0 0 0-1.135-.219c-.601 0-1.098.123-1.49.369a2.68 2.68 0 0 0-.93.984c-.237.41-.405.88-.506 1.408a9.665 9.665 0 0 0-.136 1.641v.41c0 .574.045 1.13.136 1.668.092.529.256.994.493 1.395.228.41.537.738.929.984.401.246.907.369 1.518.369Zm12.948-9.994c.192-.282.401-.542.629-.779.237-.246.483-.46.738-.643a4.724 4.724 0 0 1 1.299-.656 4.811 4.811 0 0 1 1.504-.232 6.16 6.16 0 0 1 2.133.355 4.167 4.167 0 0 1 1.668 1.08c.465.492.825 1.126 1.08 1.901.264.765.397 1.69.397 2.775V208h-3.801v-8.982c0-.529-.069-.985-.205-1.368a2.26 2.26 0 0 0-.561-.929 2.23 2.23 0 0 0-.889-.52 3.63 3.63 0 0 0-1.175-.178c-.338 0-.652.032-.944.096-.291.064-.556.16-.793.287-.218.11-.419.242-.601.397a3.765 3.765 0 0 0-.479.519V208h-3.8v-21h3.8v8.244Zm19.074 13.029c-1.14 0-2.174-.186-3.104-.56a7.279 7.279 0 0 1-2.392-1.531 6.664 6.664 0 0 1-1.545-2.256 7.365 7.365 0 0 1-.534-2.803v-.547c0-1.13.178-2.16.534-3.09a7.174 7.174 0 0 1 1.49-2.42 6.728 6.728 0 0 1 2.269-1.572c.875-.374 1.828-.56 2.858-.56 1.066 0 2.014.177 2.844.533a5.89 5.89 0 0 1 2.132 1.476c.575.638 1.012 1.409 1.313 2.311.301.893.451 1.882.451 2.967v1.613h-10.035v.041c.128.592.292 1.071.492 1.436.201.355.469.679.807.97.346.301.743.533 1.189.698.447.164.934.246 1.463.246.747 0 1.472-.142 2.174-.424a4.013 4.013 0 0 0 1.709-1.272l1.9 2.051c-.483.684-1.248 1.303-2.297 1.859-1.048.556-2.287.834-3.718.834Zm-.452-12.263c-.428 0-.82.077-1.175.232-.356.146-.666.36-.93.643-.273.282-.501.62-.684 1.011-.182.392-.319.83-.41 1.313h6.235v-.301a2.96 2.96 0 0 0-.821-2.064 2.703 2.703 0 0 0-.943-.602c-.365-.155-.788-.232-1.272-.232Zm15.519 9.228c.374 0 .729-.054 1.067-.164.337-.109.633-.264.888-.465.255-.2.451-.442.588-.724.146-.283.21-.597.192-.944h3.582a4.369 4.369 0 0 1-.479 2.133 5.188 5.188 0 0 1-1.353 1.696 6.676 6.676 0 0 1-2.01 1.121 7.254 7.254 0 0 1-2.406.396c-1.149 0-2.156-.191-3.022-.574a6.076 6.076 0 0 1-2.16-1.6 6.904 6.904 0 0 1-1.326-2.365 9.535 9.535 0 0 1-.438-2.926v-.41c0-1.039.146-2.01.438-2.912a6.723 6.723 0 0 1 1.312-2.379 6.271 6.271 0 0 1 2.16-1.6c.866-.391 1.869-.587 3.008-.587.912 0 1.755.136 2.529.41a6.12 6.12 0 0 1 2.01 1.148 5.228 5.228 0 0 1 1.299 1.819c.31.701.456 1.49.438 2.365h-3.582a2.487 2.487 0 0 0-.165-1.039 2.331 2.331 0 0 0-.56-.848 2.667 2.667 0 0 0-.889-.56 2.889 2.889 0 0 0-1.135-.219c-.601 0-1.098.123-1.49.369a2.668 2.668 0 0 0-.929.984c-.237.41-.406.88-.506 1.408a9.665 9.665 0 0 0-.137 1.641v.41c0 .574.046 1.13.137 1.668.091.529.255.994.492 1.395.228.41.538.738.93.984.401.246.906.369 1.517.369Zm14.712-3.349-1.722 1.599V208h-3.801v-21h3.801v12.004l1.148-1.313 4.088-4.484h4.566l-5.578 6.166 6.358 8.627h-4.663l-4.197-6.111Z" id="CL1"/><path d="M478.33 206.031c0-.629.2-1.166.601-1.613.41-.447.998-.67 1.764-.67.747 0 1.331.223 1.75.67.419.437.629.975.629 1.613s-.214 1.171-.643 1.6c-.419.428-.998.642-1.736.642-.747 0-1.331-.214-1.75-.642-.41-.438-.615-.971-.615-1.6Zm11.198-5.537c0-1.121.137-2.142.41-3.062.274-.93.67-1.728 1.19-2.393a5.45 5.45 0 0 1 1.873-1.545c.738-.374 1.567-.56 2.488-.56.547 0 1.044.059 1.49.177.447.11.852.274 1.217.493.237.136.46.3.67.492.21.182.406.383.588.601l.137-1.49h2.966v14.383c0 .993-.164 1.873-.492 2.639a5.469 5.469 0 0 1-1.353 1.968c-.593.529-1.304.93-2.133 1.203-.82.283-1.727.424-2.721.424-.419 0-.879-.045-1.381-.136a8.583 8.583 0 0 1-1.504-.424 7 7 0 0 1-1.435-.752 4.915 4.915 0 0 1-1.176-1.121l1.545-1.983a5.111 5.111 0 0 0 1.791 1.395c.319.146.643.25.971.314.328.073.661.11.998.11.583 0 1.098-.082 1.545-.247a3.21 3.21 0 0 0 1.162-.71c.291-.301.515-.67.67-1.108.164-.437.246-.934.246-1.49v-1.026a6.897 6.897 0 0 1-.602.561 3.6 3.6 0 0 1-.656.451 4.398 4.398 0 0 1-1.176.451c-.428.11-.893.164-1.394.164-.912 0-1.732-.186-2.461-.56a5.679 5.679 0 0 1-1.873-1.586c-.511-.665-.907-1.454-1.19-2.365a10.442 10.442 0 0 1-.41-2.981v-.287Zm3.281.287c0 .657.064 1.276.192 1.86.136.583.351 1.089.642 1.517.283.447.643.798 1.08 1.053.438.246.957.369 1.559.369a3.85 3.85 0 0 0 1.012-.123c.31-.082.588-.196.834-.342.246-.155.465-.342.656-.56a4.17 4.17 0 0 0 .506-.725v-6.48a3.339 3.339 0 0 0-.533-.739 3.01 3.01 0 0 0-.698-.56 3.391 3.391 0 0 0-.793-.301 3.52 3.52 0 0 0-.957-.123c-.61 0-1.134.128-1.572.383a3.147 3.147 0 0 0-1.08 1.052 4.806 4.806 0 0 0-.643 1.559 8.233 8.233 0 0 0-.205 1.873v.287Zm12.238-.314c0-1.076.155-2.069.465-2.981.31-.92.761-1.718 1.353-2.392a6.127 6.127 0 0 1 2.147-1.586c.847-.383 1.813-.574 2.898-.574 1.085 0 2.051.191 2.899.574a6.235 6.235 0 0 1 2.173 1.586c.584.674 1.03 1.472 1.34 2.392.31.912.465 1.905.465 2.981v.287c0 1.085-.155 2.083-.465 2.994a7.063 7.063 0 0 1-1.34 2.379 6.107 6.107 0 0 1-2.16 1.586c-.847.383-1.809.574-2.885.574-1.084 0-2.055-.191-2.912-.574a6.116 6.116 0 0 1-2.16-1.586 6.957 6.957 0 0 1-1.353-2.379c-.31-.911-.465-1.909-.465-2.994v-.287Zm3.267.287c0 .665.069 1.294.205 1.887.146.592.37 1.112.67 1.558.292.447.666.802 1.121 1.067.456.255.999.382 1.627.382.611 0 1.144-.127 1.6-.382.456-.265.829-.62 1.121-1.067.292-.446.506-.966.643-1.558a7.871 7.871 0 0 0 .218-1.887v-.287c0-.647-.072-1.267-.218-1.86a5.22 5.22 0 0 0-.643-1.558 3.432 3.432 0 0 0-1.135-1.067c-.446-.264-.984-.396-1.613-.396-.62 0-1.157.132-1.613.396a3.35 3.35 0 0 0-1.108 1.067c-.3.446-.524.966-.67 1.558a8.297 8.297 0 0 0-.205 1.86v.287Z" id="CL0"/></svg>